<?xml version="1.0" standalone="no"?>
<!DOCTYPE svg PUBLIC "-//W3C//DTD SVG 20010904//EN"
 "http://www.w3.org/TR/2001/REC-SVG-20010904/DTD/svg10.dtd">
<svg version="1.0" xmlns="http://www.w3.org/2000/svg"
 width="1333.000000pt" height="646.000000pt" viewBox="0 0 1333.000000 646.000000"
 preserveAspectRatio="xMidYMid meet">

<g transform="translate(0.000000,646.000000) scale(0.100000,-0.100000)"
fill="#000000" stroke="none">
<path d="M2860 4324 c-14 -2 -59 -9 -100 -15 -149 -22 -331 -95 -473 -190 -93
-63 -256 -230 -322 -332 -314 -483 -239 -1118 178 -1514 227 -215 507 -326
822 -325 542 1 1011 362 1151 887 35 134 44 363 20 504 -43 243 -155 459 -331
636 -168 169 -376 281 -609 330 -76 15 -288 28 -336 19z m330 -126 c0 -15 -6
-19 -27 -16 -27 3 -28 1 -37 -64 -8 -62 -11 -68 -32 -68 -22 0 -23 3 -17 48
12 83 10 97 -14 100 -14 2 -23 10 -23 21 0 15 7 16 75 7 64 -8 75 -12 75 -28z
m-185 23 c3 -6 3 -46 -1 -90 -6 -70 -9 -81 -25 -81 -17 0 -19 9 -19 83 0 46 3
87 7 90 9 10 31 8 38 -2z m-165 -40 c0 -21 3 -52 6 -69 6 -31 7 -31 50 -25 40
5 44 4 44 -16 0 -17 -6 -21 -34 -21 -18 0 -47 -3 -64 -6 -30 -6 -30 -6 -36 47
-4 30 -9 71 -12 92 -5 35 -4 37 20 37 24 0 26 -4 26 -39z m399 19 c11 -5 21
-26 25 -50 l6 -41 36 29 c23 20 43 28 56 24 18 -4 14 -10 -31 -51 -28 -25 -55
-58 -61 -73 -9 -28 -33 -37 -45 -18 -3 5 -1 19 5 31 11 19 6 59 -17 142 -5 19
1 21 26 7z m-500 -84 c49 -60 58 -75 44 -78 -10 -3 -26 2 -36 10 -24 21 -97 0
-97 -27 0 -18 -27 -37 -37 -27 -6 5 16 176 23 188 15 23 48 2 103 -66z m-189
-36 c36 -70 36 -79 10 -113 -28 -36 -84 -46 -111 -21 -27 24 -72 112 -64 124
13 21 33 8 55 -35 29 -56 43 -68 69 -60 31 10 32 31 2 90 -25 49 -26 57 -12
65 9 5 17 10 18 10 2 0 16 -27 33 -60z m1027 -32 c26 -16 31 -23 22 -34 -9
-11 -18 -10 -50 9 -33 19 -41 20 -49 7 -6 -10 -1 -19 23 -33 42 -26 42 -26 29
-39 -8 -8 -20 -5 -46 10 -34 20 -36 20 -45 3 -8 -15 -3 -22 29 -40 41 -23 48
-35 30 -46 -8 -5 -96 40 -119 61 -2 2 18 37 44 79 l47 76 26 -17 c14 -9 40
-26 59 -36z m-1200 -72 c24 -21 28 -31 27 -72 -1 -47 -1 -47 17 -26 21 26 39
29 39 5 0 -25 -30 -53 -58 -53 -14 0 -42 -5 -63 -11 -80 -24 -146 41 -115 115
28 67 101 87 153 42z m1332 -41 c49 -53 53 -89 15 -134 -37 -44 -79 -42 -136
5 -23 20 -45 41 -47 46 -3 10 107 128 120 128 4 0 25 -20 48 -45z m-514 -49
c365 -119 594 -471 547 -841 -42 -331 -266 -582 -602 -676 -69 -20 -291 -17
-370 4 -87 23 -232 96 -302 151 -112 89 -202 220 -255 371 -25 74 -27 92 -28
235 0 135 3 165 23 230 84 268 298 472 567 540 117 29 308 23 420 -14z m643
-97 c1 -8 -18 -29 -43 -47 -52 -36 -63 -56 -45 -77 19 -22 42 -18 89 16 42 30
71 33 71 7 0 -20 -96 -78 -129 -78 -54 0 -96 68 -71 116 14 26 99 86 115 81 6
-2 11 -10 13 -18z m-1630 -66 c21 -17 24 -24 15 -34 -9 -9 -20 -7 -48 10 -20
11 -38 21 -41 21 -2 0 5 -18 16 -40 11 -23 18 -45 15 -50 -3 -6 -25 -10 -48
-10 l-42 0 39 -26 c34 -23 36 -28 23 -41 -13 -13 -23 -9 -85 31 -90 58 -89 76
5 76 36 0 63 3 61 8 -2 4 -14 28 -27 53 -13 26 -21 54 -18 64 6 14 13 13 57
-12 28 -15 63 -38 78 -50z m1738 -128 c28 -19 48 -69 40 -99 -8 -34 -36 -23
-36 14 0 53 -53 78 -92 43 -24 -22 -23 -52 4 -80 15 -16 18 -27 12 -33 -15
-15 -38 -4 -57 29 -25 43 -21 78 12 112 33 33 82 39 117 14z m-1896 -60 c50
-26 64 -79 36 -134 -14 -27 -53 -51 -82 -51 -29 0 -71 30 -84 59 -17 42 2 97
44 122 38 23 48 23 86 4z m1887 -131 c82 -18 109 -33 100 -57 -3 -8 -38 -38
-78 -66 -64 -45 -74 -49 -80 -34 -5 11 -1 24 10 33 13 11 15 23 10 50 -4 19
-12 36 -18 38 -16 5 -41 32 -41 43 0 12 7 12 97 -7z m-1920 -98 c25 -22 28
-30 28 -90 0 -35 -3 -67 -6 -70 -7 -7 -154 4 -168 13 -7 4 -8 27 -4 61 11 98
86 141 150 86z m2041 -139 c3 -72 1 -77 -18 -77 -15 0 -20 6 -20 25 0 24 -2
25 -70 25 -62 0 -70 2 -70 19 0 20 34 31 101 31 34 0 39 3 39 23 0 13 3 27 7
31 18 18 28 -7 31 -77z m-2023 -71 c23 -34 17 -110 -9 -114 -16 -4 -18 0 -13
28 7 32 -8 75 -22 66 -5 -3 -11 -22 -14 -42 -7 -44 -23 -64 -50 -64 -37 0 -57
29 -57 82 0 41 3 49 17 46 12 -2 17 -14 17 -43 1 -53 28 -56 37 -3 3 20 11 44
19 52 19 24 57 20 75 -8z m2002 -42 c16 -3 20 -9 16 -25 -5 -18 -11 -20 -42
-15 -20 3 -54 6 -76 6 -49 0 -68 11 -59 33 5 15 16 16 73 12 36 -4 76 -8 88
-11z m-32 -106 c23 -27 26 -39 22 -72 -13 -96 -129 -119 -173 -35 -50 98 81
190 151 107z m-1935 -18 c0 -20 -15 -26 -119 -49 -50 -11 -64 -7 -59 17 2 10
27 21 73 33 95 23 105 23 105 -1z m29 -109 c9 -16 3 -26 -37 -61 l-47 -41 65
3 c60 3 65 1 68 -18 2 -15 -15 -37 -59 -78 -34 -31 -65 -56 -69 -56 -5 0 -11
7 -14 16 -5 12 8 30 40 59 l47 41 -65 -4 c-89 -6 -96 13 -31 73 l48 43 -67 -5
c-47 -4 -68 -2 -68 6 0 6 -1 14 -2 19 -3 7 68 17 144 20 28 2 40 -3 47 -17z
m1796 -68 c100 -50 98 -72 -7 -88 -27 -4 -48 -11 -48 -15 0 -4 18 -15 40 -25
43 -19 45 -22 31 -45 -8 -12 -22 -8 -86 25 -94 47 -96 64 -7 85 34 8 62 18 62
21 0 3 -18 14 -40 24 -22 10 -40 19 -40 21 0 7 13 34 16 34 2 0 37 -17 79 -37z
m-1717 -185 c19 -19 15 -66 -7 -78 -11 -5 -24 -10 -30 -10 -16 0 -51 38 -51
54 0 37 61 61 88 34z m1645 -9 c16 -26 0 -68 -29 -75 -29 -7 -64 18 -64 47 0
44 70 65 93 28z m-419 -256 c3 -4 -4 -13 -16 -21 -22 -12 -22 -13 -2 -9 51 11
80 -56 29 -69 -37 -9 -54 2 -22 15 37 14 36 34 -2 26 -24 -5 -32 -2 -41 15 -6
12 -10 23 -8 24 8 7 44 25 49 26 3 0 9 -3 13 -7z m-777 -50 c8 -20 -4 -28 -22
-13 -9 7 -18 10 -22 7 -3 -4 5 -15 18 -26 20 -16 22 -23 13 -38 -7 -11 -21
-17 -35 -15 -27 3 -56 28 -46 39 4 3 13 1 19 -5 7 -7 21 -12 33 -12 18 1 17 3
-7 21 -16 11 -28 27 -28 34 0 32 65 39 77 8z m714 -17 c16 -35 4 -76 -23 -76
-42 0 -68 42 -52 84 10 26 62 20 75 -8z m-670 1 c-3 -40 -26 -97 -38 -97 -9 0
-13 6 -10 14 3 8 11 33 18 55 7 23 16 40 21 39 5 -2 9 -7 9 -11z m63 -35 c11
-38 26 -42 26 -8 0 23 16 44 26 33 9 -9 -20 -107 -32 -107 -6 0 -17 14 -24 30
-14 34 -30 40 -30 11 0 -19 -17 -38 -26 -28 -2 2 1 27 8 56 14 60 37 66 52 13z
m498 11 c20 -18 23 -45 8 -74 -14 -26 -45 -24 -64 3 -40 57 6 116 56 71z
m-104 -5 c17 -17 15 -38 -5 -60 -15 -17 -15 -18 5 -18 12 0 22 -4 22 -10 0 -5
-4 -10 -9 -10 -5 0 -23 -3 -40 -6 -26 -6 -31 -4 -31 14 0 11 11 27 25 36 14 9
25 21 25 27 0 7 -10 9 -25 5 -18 -5 -25 -2 -25 8 0 24 39 33 58 14z m-239 -11
c16 -20 3 -27 -25 -15 -23 11 -54 -2 -54 -23 0 -17 33 -39 50 -34 10 3 21 1
25 -4 8 -15 -45 -26 -64 -14 -9 6 -20 22 -25 36 -8 21 -6 31 9 47 21 23 67 27
84 7z m101 -7 c0 -5 -13 -10 -30 -10 -16 0 -30 -4 -30 -10 0 -5 9 -10 20 -10
11 0 20 -7 20 -15 0 -8 -9 -15 -20 -15 -11 0 -20 -4 -20 -10 0 -5 14 -10 30
-10 17 0 30 -4 30 -10 0 -5 -18 -10 -40 -10 l-40 0 0 55 0 55 40 0 c22 0 40
-4 40 -10z"/>
<path d="M2660 4112 c0 -32 12 -40 38 -24 9 6 6 14 -13 32 l-25 23 0 -31z"/>
<path d="M2278 3949 c-24 -14 -23 -61 2 -84 45 -41 110 18 76 70 -17 26 -48
32 -78 14z"/>
<path d="M3627 3892 l-37 -38 23 -22 c28 -27 58 -28 80 -4 23 25 21 46 -5 77
l-23 26 -38 -39z"/>
<path d="M2536 3353 c24 -76 44 -141 44 -145 0 -4 25 18 55 48 l55 55 -27 90
-28 89 -71 0 -72 0 44 -137z"/>
<path d="M2749 3407 l-25 -83 81 4 c59 3 90 0 119 -12 27 -11 37 -12 34 -3 -3
6 -15 49 -28 95 l-24 82 -66 0 -65 0 -26 -83z"/>
<path d="M3021 3412 c-13 -42 -26 -85 -28 -94 -5 -16 3 -18 61 -18 l65 0 27
88 c14 48 28 90 31 95 2 4 -26 7 -64 7 l-68 0 -24 -78z"/>
<path d="M2760 3291 c-119 -39 -180 -133 -159 -247 12 -63 51 -112 117 -146
29 -15 69 -41 89 -59 67 -59 146 -75 218 -44 48 20 53 40 20 75 -22 23 -32 27
-46 20 -23 -13 -69 -13 -69 0 0 6 4 10 9 10 5 0 24 12 41 26 87 74 95 216 16
302 -48 53 -168 85 -236 63z m130 -139 c30 -37 27 -106 -5 -137 -35 -36 -96
-35 -124 1 -25 31 -28 109 -7 137 31 40 104 40 136 -1z"/>
<path d="M3027 3248 c42 -46 57 -90 58 -163 0 -56 -5 -79 -24 -112 l-24 -41
39 -46 38 -46 158 0 158 0 0 55 0 55 -145 0 -145 0 0 25 0 25 100 0 100 0 0
55 0 55 -100 0 -100 0 0 25 c0 24 2 25 70 25 l70 0 0 55 0 55 -137 0 -136 0
20 -22z"/>
<path d="M1966 3484 c-45 -45 17 -114 70 -79 30 20 33 70 5 85 -28 14 -57 12
-75 -6z"/>
<path d="M3930 3340 c0 -23 4 -24 31 -10 27 15 24 30 -6 30 -18 0 -25 -5 -25
-20z"/>
<path d="M1922 3268 c-5 -7 -13 -24 -17 -37 -9 -30 7 -41 63 -41 41 0 42 1 42
33 0 18 -5 38 -12 45 -16 16 -63 15 -76 0z"/>
<path d="M3896 2918 c-21 -30 -20 -44 4 -68 36 -36 90 -16 90 35 0 52 -65 74
-94 33z"/>
<path d="M3284 2225 c-9 -24 22 -53 38 -37 9 9 10 17 2 29 -15 24 -33 27 -40
8z"/>
<path d="M3186 2195 c-7 -20 3 -45 19 -45 21 0 27 17 15 40 -13 24 -26 26 -34
5z"/>
<path d="M7245 4122 c-156 -41 -262 -121 -318 -240 -27 -59 -31 -78 -31 -153
0 -77 3 -93 33 -153 59 -119 156 -172 429 -231 145 -32 192 -55 192 -95 0 -39
-29 -57 -102 -66 -103 -12 -281 26 -397 85 -23 12 -45 21 -47 18 -14 -14 -123
-284 -119 -295 7 -19 107 -61 215 -89 126 -33 367 -43 479 -19 155 33 283 122
338 235 25 50 28 67 28 161 0 92 -3 111 -25 153 -55 108 -168 170 -408 223
-204 46 -234 62 -213 118 29 74 275 66 435 -16 21 -11 42 -16 47 -11 7 8 119
276 119 287 0 11 -82 47 -167 72 -76 23 -110 27 -253 30 -136 3 -177 1 -235
-14z"/>
<path d="M9912 4120 c-209 -56 -375 -207 -443 -403 -105 -302 30 -637 311
-776 119 -58 204 -74 365 -68 203 8 326 58 456 187 124 124 179 260 179 445 0
185 -55 321 -179 445 -80 79 -151 123 -261 160 -96 33 -325 38 -428 10z m277
-326 c38 -11 67 -29 101 -63 58 -59 82 -123 82 -226 0 -103 -23 -167 -82 -226
-133 -133 -342 -90 -422 86 -18 40 -22 68 -22 140 0 103 21 165 77 223 72 76
161 98 266 66z"/>
<path d="M4240 4115 c0 -3 86 -277 190 -610 105 -333 190 -607 190 -610 0 -3
97 -5 215 -5 194 0 215 2 223 18 5 9 51 153 102 320 52 166 97 299 100 295 4
-5 39 -118 79 -253 39 -135 80 -275 92 -313 l20 -67 216 2 217 3 188 600 c103
329 188 605 188 612 0 10 -41 13 -189 13 l-189 0 -15 -47 c-74 -250 -202 -642
-207 -636 -4 5 -49 150 -100 323 -51 173 -96 325 -101 338 -8 22 -11 22 -192
22 l-183 0 -94 -292 c-51 -161 -100 -315 -108 -341 -8 -27 -17 -45 -21 -40 -5
4 -52 158 -107 341 l-98 332 -208 0 c-114 0 -208 -2 -208 -5z"/>
<path d="M6350 3505 l0 -615 205 0 205 0 0 615 0 615 -205 0 -205 0 0 -615z"/>
<path d="M8070 3505 l0 -615 303 0 c336 0 440 9 555 45 196 62 347 221 393
415 17 71 17 239 0 310 -19 78 -73 187 -121 242 -59 68 -176 143 -271 173
-116 36 -219 45 -556 45 l-303 0 0 -615z m716 258 c48 -26 100 -82 122 -132
20 -46 21 -171 3 -233 -16 -58 -69 -121 -125 -151 -35 -18 -61 -22 -173 -25
l-133 -4 0 287 0 287 133 -4 c111 -3 138 -7 173 -25z"/>
<path d="M10930 3505 l0 -615 185 0 185 0 0 267 0 268 128 -213 127 -212 90 3
90 2 125 215 125 215 5 -270 5 -270 183 -3 182 -2 0 615 0 615 -166 -2 -166
-3 -184 -315 c-102 -173 -188 -316 -193 -318 -4 -1 -94 142 -200 318 l-192
320 -164 0 -165 0 0 -615z"/>
</g>
</svg>
