<?xml version="1.0" standalone="no"?>
<!DOCTYPE svg PUBLIC "-//W3C//DTD SVG 20010904//EN"
 "http://www.w3.org/TR/2001/REC-SVG-20010904/DTD/svg10.dtd">
<svg version="1.0" xmlns="http://www.w3.org/2000/svg"
 width="542.000000pt" height="571.000000pt" viewBox="0 0 542.000000 571.000000"
 preserveAspectRatio="xMidYMid meet">

<g transform="translate(0.000000,571.000000) scale(0.100000,-0.100000)"
fill="#000000" stroke="none">
<path d="M2449 4605 c-198 -32 -368 -88 -549 -181 -652 -336 -1034 -1037 -959
-1765 63 -624 442 -1161 1011 -1434 490 -235 1062 -232 1553 10 496 243 845
697 967 1255 19 92 22 134 23 340 0 207 -3 249 -23 349 -145 715 -695 1267
-1407 1412 -141 28 -481 36 -616 14z m329 -220 c2 -55 0 -115 -3 -132 -5 -28
-10 -33 -35 -33 l-30 0 0 128 c0 71 3 132 7 136 4 4 19 6 33 4 25 -3 25 -4 28
-103z m191 80 c51 -7 95 -16 98 -19 3 -2 2 -14 -2 -26 -6 -19 -12 -21 -45 -15
-45 8 -43 11 -60 -118 -12 -87 -13 -88 -39 -85 -23 3 -26 7 -26 43 0 22 4 70
9 107 l8 68 -41 6 c-42 7 -46 11 -35 38 7 19 14 19 133 1z m-435 -82 c12 -141
7 -133 82 -126 42 4 64 2 64 -5 0 -6 2 -17 5 -25 5 -11 -14 -16 -92 -24 -54
-6 -99 -10 -100 -9 -1 1 -7 47 -13 102 -6 54 -13 114 -16 132 -5 31 -4 32 29
32 l35 0 6 -77z m603 51 c16 -5 24 -19 34 -57 19 -83 20 -84 73 -38 48 42 57
45 89 32 16 -6 7 -17 -56 -74 -56 -50 -79 -79 -90 -110 -11 -32 -19 -41 -33
-39 -43 7 -44 9 -27 57 14 43 14 51 -6 130 -28 114 -29 111 16 99z m-756 -120
c68 -80 88 -109 77 -115 -23 -15 -55 -10 -69 12 -14 20 -15 20 -77 3 -58 -16
-62 -19 -62 -46 0 -22 -6 -31 -26 -39 -15 -5 -29 -7 -32 -5 -2 3 3 68 13 145
19 145 20 147 67 150 10 1 54 -42 109 -105z m-283 -53 c52 -97 56 -144 15
-186 -33 -33 -63 -45 -107 -45 -48 0 -78 29 -125 119 l-42 80 28 14 27 15 46
-82 c40 -72 49 -81 76 -84 36 -4 64 19 64 50 0 11 -18 54 -41 95 -23 41 -39
76 -38 77 8 6 44 25 49 26 3 0 24 -35 48 -79z m1509 -45 c66 -43 72 -49 60
-66 -6 -11 -14 -20 -17 -20 -3 0 -30 16 -60 36 -51 32 -56 33 -67 17 -19 -25
-17 -28 37 -63 43 -28 49 -35 38 -49 -7 -9 -13 -18 -15 -20 -1 -2 -25 11 -53
29 -49 31 -51 32 -65 14 -8 -11 -15 -22 -15 -26 0 -4 25 -23 55 -43 30 -19 55
-38 55 -42 -1 -18 -19 -36 -32 -31 -21 8 -158 98 -158 104 0 2 30 52 66 110
48 76 71 104 83 101 9 -2 49 -25 88 -51z m-1803 -100 c63 -26 96 -107 72 -174
-7 -20 -5 -23 11 -20 10 2 22 13 28 26 6 13 19 22 32 22 26 0 28 -8 11 -44
-16 -37 -54 -58 -108 -61 -25 -1 -56 -7 -68 -14 -49 -26 -128 0 -162 54 -12
20 -20 50 -20 78 0 38 6 53 32 83 53 60 109 76 172 50z m2082 -138 c43 -83
-22 -188 -116 -188 -46 0 -90 24 -145 80 l-49 50 85 87 c46 49 89 91 94 95 12
9 110 -85 131 -124z m-1036 32 c324 -40 615 -206 806 -459 257 -342 312 -770
150 -1168 -74 -181 -225 -373 -390 -496 -148 -109 -347 -190 -536 -218 -125
-18 -331 -7 -450 25 -371 97 -660 348 -804 698 -55 133 -77 234 -83 389 -9
218 25 385 117 575 216 445 705 713 1190 654z m1176 -167 c7 -10 14 -21 14
-25 0 -4 -34 -30 -75 -58 -64 -43 -75 -55 -75 -80 0 -34 23 -60 54 -60 13 0
55 22 94 50 l71 50 15 -22 c9 -12 16 -25 16 -29 0 -4 -35 -30 -78 -58 -101
-66 -137 -68 -193 -12 -34 33 -39 45 -39 82 0 26 8 53 18 66 18 24 140 111
156 112 5 1 15 -7 22 -16z m-2514 -80 c59 -37 108 -72 108 -78 0 -5 -6 -17
-13 -27 -12 -15 -18 -13 -67 18 -30 18 -58 34 -63 34 -4 0 7 -28 24 -61 17
-34 27 -65 22 -70 -4 -4 -39 -9 -78 -11 l-70 -3 63 -41 63 -40 -19 -24 -19
-23 -109 68 c-60 37 -110 69 -112 70 -2 2 3 12 10 24 11 19 22 21 105 21 51 0
93 2 93 5 0 3 -18 41 -40 85 -35 69 -38 83 -28 100 7 11 15 20 17 20 2 0 53
-30 113 -67z m2684 -238 c46 -30 80 -135 55 -174 -7 -10 -13 -11 -30 -2 -15 9
-21 21 -21 47 0 70 -43 104 -107 83 -61 -20 -74 -92 -24 -138 22 -21 26 -31
20 -49 -10 -27 -19 -28 -51 -2 -58 45 -76 144 -36 195 51 65 131 82 194 40z
m-2849 -92 c69 -33 94 -123 54 -201 -42 -82 -155 -97 -217 -30 -44 49 -51 98
-22 156 41 82 111 111 185 75z m2833 -199 c69 -15 131 -32 138 -37 6 -5 12
-21 12 -36 -1 -22 -19 -39 -110 -103 -59 -43 -113 -78 -118 -78 -5 0 -12 11
-15 25 -3 19 2 31 19 44 27 22 28 23 13 90 -9 41 -15 50 -37 56 -30 7 -42 21
-42 48 0 22 -7 22 140 -9z m-2892 -134 c51 -31 65 -76 56 -178 l-7 -84 -41 5
c-22 3 -83 9 -134 13 l-93 7 7 71 c7 84 33 144 71 168 38 24 101 22 141 -2z
m3072 -210 l0 -120 -25 0 c-23 0 -25 4 -25 45 l0 45 -110 -7 -110 -6 0 30 c0
40 10 43 127 43 l95 0 -2 38 c-3 52 -3 52 25 52 l25 0 0 -120z m-3036 -121
c21 -25 26 -41 26 -88 0 -66 -15 -93 -47 -85 -18 5 -20 10 -12 31 18 48 9 113
-17 113 -18 0 -30 -25 -38 -80 -9 -57 -30 -80 -73 -80 -61 0 -91 50 -85 145 3
48 9 56 33 47 19 -7 22 -16 23 -68 1 -52 3 -59 21 -59 16 0 22 10 31 58 14 71
36 97 80 97 24 0 39 -8 58 -31z m2961 -47 l70 -7 -3 -30 c-2 -16 -4 -30 -5
-31 -1 -1 -58 4 -127 10 l-125 11 -3 33 -3 33 63 -7 c35 -3 95 -9 133 -12z
m-36 -132 c123 -62 73 -270 -64 -270 -54 0 -83 13 -114 52 -35 44 -36 120 -1
171 45 66 110 83 179 47z m-2875 -56 c4 -15 5 -29 2 -32 -3 -2 -61 -17 -128
-32 -128 -30 -141 -28 -136 15 3 17 21 24 118 47 144 33 137 33 144 2z m47
-166 l13 -32 -70 -64 -69 -64 48 6 c26 3 67 8 91 12 42 5 46 3 61 -26 l16 -31
-63 -58 c-153 -140 -146 -134 -157 -112 -18 33 -13 43 57 108 37 34 60 61 52
59 -8 -3 -51 -7 -96 -11 l-80 -6 -13 28 c-11 24 -10 29 9 45 11 9 44 38 73 63
l52 47 -80 -7 c-44 -3 -87 -9 -96 -11 -10 -3 -20 6 -28 22 -6 15 -10 28 -8 31
2 2 60 10 128 17 68 7 129 14 135 15 6 0 18 -13 25 -31z m2702 -104 c61 -31
113 -57 115 -59 1 -1 -2 -14 -9 -27 -9 -22 -24 -28 -97 -43 -48 -10 -91 -20
-96 -23 -5 -3 21 -20 58 -39 l66 -33 -15 -29 -15 -29 -119 61 c-112 58 -118
63 -108 84 8 18 29 26 111 46 l101 23 -65 33 c-36 18 -67 35 -69 37 -5 5 17
54 24 54 3 0 56 -25 118 -56z m-2589 -275 c52 -41 23 -129 -44 -129 -67 0 -96
88 -44 129 15 12 34 21 44 21 10 0 29 -9 44 -21z m2439 12 c17 -2 47 -43 47
-65 0 -39 -36 -76 -75 -76 -56 0 -96 70 -62 112 17 21 47 36 66 33 9 -2 19 -4
24 -4z m-589 -416 c3 -10 -5 -20 -24 -30 -39 -20 -38 -25 5 -18 87 14 104 -92
19 -113 -28 -7 -50 8 -40 25 4 6 18 11 31 11 28 0 39 24 19 40 -11 10 -19 9
-40 -5 -14 -9 -27 -15 -29 -13 -5 6 -35 67 -35 72 0 6 70 45 81 46 4 0 9 -7
13 -15z m-1187 -59 c30 -26 25 -48 -7 -28 -23 14 -50 16 -50 3 0 -5 14 -19 30
-31 49 -35 36 -90 -21 -90 -30 0 -79 34 -79 56 0 19 6 18 46 -7 50 -31 64 -13
20 27 -39 36 -44 54 -20 78 22 23 48 20 81 -8z m1081 -32 c28 -32 29 -87 2
-114 -23 -23 -29 -24 -65 -10 -25 10 -55 61 -55 95 0 9 11 27 25 41 30 30 58
26 93 -12z m-991 -8 c-2 -6 -14 -41 -26 -78 -16 -49 -26 -65 -37 -61 -8 3 -14
8 -14 13 0 6 27 90 45 137 2 7 11 10 20 7 9 -4 14 -12 12 -18z m83 -51 c20
-50 40 -65 40 -30 0 29 20 65 33 59 12 -4 11 -17 -4 -81 -10 -41 -20 -77 -22
-79 -12 -13 -35 13 -52 57 -11 28 -23 53 -27 55 -4 3 -11 -14 -14 -36 -6 -38
-26 -61 -40 -47 -4 3 2 40 12 81 22 96 42 101 74 21z m735 39 c20 -8 45 -56
45 -86 0 -62 -68 -91 -110 -46 -57 61 -9 160 65 132z m-507 -40 c18 -12 20
-19 12 -30 -10 -11 -16 -11 -35 2 -49 32 -101 -15 -70 -62 13 -21 23 -25 53
-22 28 2 37 -1 37 -12 0 -10 -13 -16 -42 -18 -35 -3 -48 2 -68 22 -72 72 29
179 113 120z m386 -17 c9 -24 6 -31 -24 -62 l-33 -34 36 6 c30 5 37 3 37 -11
0 -19 -8 -22 -67 -29 -36 -4 -43 -2 -49 15 -5 16 4 30 35 60 22 22 38 44 35
49 -7 12 -41 11 -49 -1 -3 -5 -12 -7 -21 -3 -13 5 -13 8 3 25 27 30 85 21 97
-15z m-224 8 c0 -11 -12 -15 -45 -15 -33 0 -45 -4 -45 -15 0 -10 10 -15 30
-15 23 0 30 -4 30 -20 0 -16 -7 -20 -30 -20 -20 0 -30 -5 -30 -15 0 -11 12
-15 45 -15 33 0 45 -4 45 -15 0 -12 -13 -15 -60 -15 l-60 0 0 80 0 80 60 0
c47 0 60 -3 60 -15z"/>
<path d="M2267 4305 c-4 -26 -6 -50 -4 -52 2 -2 20 3 40 9 l36 13 -33 39 -33
40 -6 -49z"/>
<path d="M1685 4045 c-37 -36 -34 -86 6 -119 49 -41 100 -30 124 27 35 84 -67
156 -130 92z"/>
<path d="M3712 3970 l-52 -58 35 -31 c44 -39 86 -41 120 -6 35 34 33 76 -6
120 -17 19 -34 35 -38 34 -3 0 -30 -27 -59 -59z"/>
<path d="M2056 3233 c24 -76 56 -175 70 -220 l26 -83 30 45 c26 38 92 98 120
107 5 2 -10 68 -33 146 l-43 142 -107 0 -107 0 44 -137z"/>
<path d="M2436 3358 c-3 -7 -21 -64 -41 -126 -21 -62 -35 -115 -33 -117 2 -3
20 0 39 5 59 17 184 12 246 -10 31 -11 59 -18 61 -15 3 3 -13 64 -35 137 l-41
133 -96 3 c-72 2 -97 -1 -100 -10z"/>
<path d="M2802 3236 c-23 -74 -42 -139 -42 -145 0 -7 32 -11 95 -11 l94 0 39
123 c22 67 42 132 46 145 7 22 6 22 -92 22 l-98 0 -42 -134z"/>
<path d="M2830 2988 c55 -73 75 -135 75 -234 0 -73 -4 -88 -36 -153 l-36 -73
59 -69 60 -69 234 0 234 0 0 85 0 85 -215 0 -215 0 0 40 0 40 145 0 145 0 0
80 0 80 -145 0 -145 0 0 38 0 37 100 -2 100 -2 0 85 0 84 -200 0 -200 0 40
-52z"/>
<path d="M1254 3380 c-58 -23 -71 -94 -23 -134 48 -41 99 -32 128 22 33 61
-40 138 -105 112z"/>
<path d="M4166 3152 c12 -54 12 -54 55 -25 44 29 42 33 -29 46 -31 6 -32 5
-26 -21z"/>
<path d="M1166 3038 c-21 -17 -29 -36 -33 -69 l-5 -46 77 -7 c43 -4 79 -5 82
-2 2 2 5 25 6 50 2 53 -20 82 -69 92 -24 4 -37 0 -58 -18z"/>
<path d="M4122 2517 c-48 -51 -10 -137 61 -137 36 0 69 27 81 67 8 26 -16 78
-39 87 -36 13 -82 6 -103 -17z"/>
<path d="M3203 1475 c-10 -27 10 -70 33 -73 28 -4 38 23 21 56 -14 32 -44 41
-54 17z"/>
<path d="M3061 1437 c-14 -14 -14 -42 -1 -68 14 -24 36 -24 50 0 20 38 -21 96
-49 68z"/>
</g>
</svg>
